<?xml version="1.0" encoding="utf-8"?>
<!-- Generator: Adobe Illustrator 22.0.1, SVG Export Plug-In . SVG Version: 6.00 Build 0)  -->
<svg version="1.1" id="Layer_1" xmlns:sketch="http://www.bohemiancoding.com/sketch/ns"
	 xmlns="http://www.w3.org/2000/svg" xmlns:xlink="http://www.w3.org/1999/xlink" x="0px" y="0px" viewBox="0 0 150 150"
	 style="enable-background:new 0 0 150 150;" xml:space="preserve">
<style type="text/css">
	.st0{fill:#EEEEEE;stroke:#FFFFFF;stroke-width:4;}
	.st1{fill:none;stroke:#F2EDED;}
	.st2{fill:#ACB3BA;}
	.st3{fill:#34495E;}
	.st4{fill:#FFFFFF;}
	.st5{fill:#5D6D7E;}
	.st6{fill:#005EB8;}
	.st7{fill:#F2F2F2;}
	.st8{fill:#48A23F;}
	.st9{fill:#98C8F8;}
	.st10{fill:#EEEEEE;}
	.st11{fill:#ED8B00;}
</style>
<g id="Oval-1_4_">
	<g sketch:type="MSShapeGroup">
		<circle id="path-1_9_" class="st0" cx="75.1" cy="75" r="74"/>
	</g>
	<g>
		<circle id="path-1_8_" class="st1" cx="75.1" cy="75" r="74"/>
	</g>
</g>
<g>
	<rect x="57.1" y="106.6" class="st2" width="35.5" height="10.5"/>
	<path class="st3" d="M117.8,43.3H32.3c-2.1,0-3.9,1.7-3.9,3.9v55.5c0,2.1,1.7,3.9,3.9,3.9h85.4c2.1,0,3.9-1.7,3.9-3.9V47.2
		C121.6,45.1,119.9,43.3,117.8,43.3z"/>
	<rect x="34.3" y="49.2" class="st4" width="81.6" height="51.7"/>
	<rect x="46.5" y="117.1" class="st5" width="57.1" height="2.5"/>
	<polygon class="st2" points="109.4,49.2 105.8,100.8 44.3,100.8 40.6,49.2 	"/>
	<rect x="44.3" y="35.4" class="st4" width="61.2" height="65.4"/>
	<rect x="44.3" y="26.4" class="st6" width="61.2" height="8.9"/>
	<g>
		<circle class="st7" cx="65.4" cy="30.9" r="2.5"/>
		<circle class="st7" cx="57.1" cy="30.9" r="2.5"/>
		<circle class="st7" cx="48.8" cy="30.9" r="2.5"/>
		<path class="st7" d="M101.3,28.4H80.9c-1.4,0-2.5,1.2-2.5,2.5c0,1.4,1.2,2.5,2.5,2.5h20.4c1.4,0,2.5-1.2,2.5-2.5
			C103.8,29.6,102.6,28.4,101.3,28.4z"/>
	</g>
</g>
<path class="st8" d="M86,77.6H74.4c-5.9,0-10.7-4.8-10.7-10.7s4.8-10.7,10.7-10.7H86v-7H74.4c-9.7,0-17.7,8-17.7,17.7l0,0
	c0,9.7,8,17.7,17.7,17.7H86V77.6z"/>
<path class="st9" d="M56.7,66.9L56.7,66.9h7c0-5.9,4.8-10.7,10.7-10.7H86v-7H74.4C64.7,49.2,56.7,57.2,56.7,66.9z"/>
<rect x="86" y="49.2" class="st10" width="5.8" height="7"/>
<rect x="86" y="77.6" class="st10" width="5.8" height="7"/>
<polygon class="st11" points="72.3,70.4 85.2,70.4 83.6,65.8 93.2,62.7 81.5,62.7 81.8,67.5 "/>
</svg>
