<?xml version="1.0" encoding="utf-8"?>
<!-- Generator: Adobe Illustrator 21.0.2, SVG Export Plug-In . SVG Version: 6.00 Build 0)  -->
<svg version="1.1" id="Layer_1" xmlns:sketch="http://www.bohemiancoding.com/sketch/ns"
	 xmlns="http://www.w3.org/2000/svg" xmlns:xlink="http://www.w3.org/1999/xlink" x="0px" y="0px" viewBox="0 0 150 150"
	 style="enable-background:new 0 0 150 150;" xml:space="preserve">
<style type="text/css">
	.st0{fill:#EEEEEE;stroke:#FFFFFF;stroke-width:4;}
	.st1{fill:none;stroke:#F2EDED;}
	.st2{fill:#ACB3BA;}
	.st3{fill:#34495E;}
	.st4{fill:#FFFFFF;}
	.st5{fill:#5D6D7E;}
	.st6{fill:#005EB8;}
	.st7{fill:#F2F2F2;}
	.st8{fill:#98C8F8;}
	.st9{fill:#48A23F;}
	.st10{fill:#ED8B00;}
</style>
<g id="Oval-1">
	<g sketch:type="MSShapeGroup">
		<circle id="path-1" class="st0" cx="75" cy="75" r="74"/>
	</g>
	<g>
		<circle id="path-1_1_" class="st1" cx="75" cy="75" r="74"/>
	</g>
</g>
<g>
	<rect x="57.1" y="106.6" class="st2" width="35.5" height="10.5"/>
	<path class="st3" d="M117.7,43.3H32.3c-2.1,0-3.9,1.7-3.9,3.9v55.5c0,2.1,1.7,3.9,3.9,3.9h85.4c2.1,0,3.9-1.7,3.9-3.9V47.2
		C121.6,45.1,119.9,43.3,117.7,43.3z"/>
	<rect x="34.2" y="49.2" class="st4" width="81.6" height="51.7"/>
	<rect x="46.5" y="117.1" class="st5" width="57.1" height="2.5"/>
	<polygon class="st2" points="109.4,49.2 105.7,100.8 44.3,100.8 40.6,49.2 	"/>
	<rect x="44.3" y="35.4" class="st4" width="61.2" height="65.4"/>
	<rect x="44.3" y="26.4" class="st6" width="61.2" height="8.9"/>
	<g>
		<circle class="st7" cx="65.3" cy="30.9" r="2.5"/>
		<circle class="st7" cx="57.1" cy="30.9" r="2.5"/>
		<circle class="st7" cx="48.8" cy="30.9" r="2.5"/>
		<path class="st7" d="M101.2,28.4H80.8c-1.4,0-2.5,1.2-2.5,2.5c0,1.4,1.2,2.5,2.5,2.5h20.4c1.4,0,2.5-1.2,2.5-2.5
			C103.7,29.6,102.6,28.4,101.2,28.4z"/>
	</g>
	<rect x="48.8" y="40.8" class="st8" width="24" height="24"/>
	<rect x="76.8" y="40.8" class="st8" width="24" height="24"/>
	<rect x="48.8" y="69.3" class="st8" width="24" height="24"/>
	<rect x="76.8" y="69.3" class="st9" width="24" height="24"/>
</g>
<g>
	<path class="st10" d="M96.7,64.4v9.4c-0.2,0-0.4,0-0.6,0s-0.4,0-0.6,0v-9.4H96.7z"/>
	<path class="st10" d="M96.7,101.3v9.4h-1v-9.4c0.2,0,0.4,0,0.6,0S96.5,101.3,96.7,101.3z"/>
	<path class="st10" d="M112.9,71.6l-6.6,6.6c-0.2-0.2-0.4-0.6-0.8-0.8l6.8-6.6L112.9,71.6z"/>
	<path class="st10" d="M86.9,97.7l-6.8,6.6l-0.8-0.8l6.8-6.6C86.3,97.3,86.5,97.5,86.9,97.7z"/>
	<path class="st10" d="M119.3,87v1h-9.4c0-0.2,0-0.4,0-0.4c0-0.2,0-0.4,0-0.6H119.3z"/>
	<path class="st10" d="M82.5,87.6c0,0.2,0,0.4,0,0.4h-9.4v-1h9.4C82.5,87.2,82.5,87.4,82.5,87.6z"/>
	<path class="st10" d="M112.9,103.7l-0.8,0.8l-6.8-6.6c0.2-0.2,0.6-0.4,0.8-0.8L112.9,103.7z"/>
	<path class="st10" d="M86.9,77.6c-0.2,0.2-0.6,0.4-0.8,0.8l-6.8-6.6l0.8-0.8L86.9,77.6z"/>
	<path class="st10" d="M91.3,74.8c-0.4,0.2-0.6,0.2-1,0.4l-2.2-5.4l1-0.4L91.3,74.8z"/>
	<path class="st10" d="M104.1,105.5l-1,0.4l-2.2-5.4c0.4,0,0.6-0.2,1-0.4L104.1,105.5z"/>
	<path class="st10" d="M83.7,81.8c-0.2,0.2-0.2,0.6-0.4,1l-5.4-2.2l0.4-1L83.7,81.8z"/>
	<path class="st10" d="M114.3,94.7l-0.4,1l-5.4-2.2c0.2-0.2,0.2-0.6,0.4-1L114.3,94.7z"/>
	<path class="st10" d="M83.7,93.2l-5.4,2.2l-0.4-0.8l5.4-2.2C83.3,92.6,83.5,93,83.7,93.2z"/>
	<path class="st10" d="M114.3,80.6l-5.4,2.2c0-0.4-0.2-0.6-0.4-1l5.4-2.2L114.3,80.6z"/>
	<path class="st10" d="M91.3,100.5l-2.2,5.4l-1-0.4l2.2-5.4C90.7,100.3,91.1,100.3,91.3,100.5z"/>
	<path class="st10" d="M104.1,69.8l-2.2,5.4c-0.2-0.2-0.6-0.2-1-0.4l2.2-5.4L104.1,69.8z"/>
</g>
<polygon class="st3" points="87.5,79 92.3,96.3 96.5,91.8 100.9,96.3 104.7,92.4 100.3,88 104.7,83.8 "/>
</svg>
