<?xml version="1.0" encoding="utf-8"?>
<!-- Generator: Adobe Illustrator 22.0.1, SVG Export Plug-In . SVG Version: 6.00 Build 0)  -->
<svg version="1.1" id="Layer_1" xmlns:sketch="http://www.bohemiancoding.com/sketch/ns"
	 xmlns="http://www.w3.org/2000/svg" xmlns:xlink="http://www.w3.org/1999/xlink" x="0px" y="0px" viewBox="0 0 150 150"
	 style="enable-background:new 0 0 150 150;" xml:space="preserve">
<style type="text/css">
	.st0{fill:#EEEEEE;stroke:#FFFFFF;stroke-width:4;}
	.st1{fill:none;stroke:#F2EDED;}
	.st2{fill:#ACB3BA;}
	.st3{fill:#34495E;}
	.st4{fill:#FFFFFF;}
	.st5{fill:#5D6D7E;}
	.st6{fill:#005EB8;}
	.st7{fill:#F2F2F2;}
	.st8{fill:#98C8F8;}
	.st9{fill:#48A23F;}
	.st10{fill:#ED8B00;}
	.st11{fill:#EA5E5D;}
	.st12{fill:#EEEEEE;}
	.st13{fill:#74B4E8;}
	.st14{fill:#0E76CC;}
	.st15{fill:#034F8C;}
	.st16{fill:#CE750B;}
	.st17{fill:none;stroke:#34495E;stroke-width:3;stroke-linecap:round;stroke-linejoin:round;stroke-miterlimit:10;}
	.st18{fill:#FFFFFF;stroke:#34495E;stroke-miterlimit:10;}
	.st19{opacity:0.2;}
	.st20{fill:none;stroke:#ED8B00;stroke-width:3;stroke-miterlimit:10;}
	.st21{fill:none;stroke:#34495E;stroke-miterlimit:10;}
	.st22{fill:none;stroke:#ED8B00;stroke-miterlimit:10;}
	.st23{fill:none;stroke:#005EB8;stroke-width:3;stroke-linecap:round;stroke-linejoin:round;stroke-miterlimit:10;}
</style>
<g id="Oval-1_3_">
	<g sketch:type="MSShapeGroup">
		<circle id="path-1_7_" class="st0" cx="75" cy="75.2" r="74"/>
	</g>
	<g>
		<circle id="path-1_6_" class="st1" cx="75" cy="75.2" r="74"/>
	</g>
</g>
<g>
	<g>
		<g>
			<line class="st23" x1="87.1" y1="71.6" x2="79" y2="71.6"/>
			<polyline class="st23" points="90.8,98.8 95.4,98.8 98.5,89.7 			"/>
			<polyline class="st23" points="101.5,80.7 104.5,71.6 96.3,71.6 			"/>
			<line class="st23" x1="96.3" y1="71.6" x2="87.1" y2="71.6"/>
			<line class="st23" x1="85.5" y1="98.8" x2="90.8" y2="98.8"/>
			<line class="st23" x1="67.9" y1="98.8" x2="73.2" y2="98.8"/>
			<polyline class="st23" points="58.8,89.7 61.5,98.8 67.9,98.8 			"/>
			<line class="st23" x1="79" y1="98.8" x2="85.5" y2="98.8"/>
			<line class="st23" x1="73.2" y1="98.8" x2="79" y2="98.8"/>
			<polyline class="st23" points="62.4,71.6 53.5,71.6 56.2,80.7 			"/>
			<line class="st23" x1="71.6" y1="71.6" x2="62.4" y2="71.6"/>
			<line class="st23" x1="56.2" y1="80.7" x2="58.8" y2="89.7"/>
			<line class="st23" x1="101.5" y1="80.7" x2="98.5" y2="89.7"/>
			<line class="st23" x1="79" y1="71.6" x2="71.6" y2="71.6"/>
			<line class="st23" x1="79" y1="80.7" x2="72.2" y2="80.7"/>
			<line class="st23" x1="56.2" y1="80.7" x2="64.2" y2="80.7"/>
			<line class="st23" x1="86.5" y1="80.7" x2="79" y2="80.7"/>
			<line class="st23" x1="72.2" y1="80.7" x2="64.2" y2="80.7"/>
			<line class="st23" x1="101.5" y1="80.7" x2="94.5" y2="80.7"/>
			<line class="st23" x1="94.5" y1="80.7" x2="86.5" y2="80.7"/>
			<line class="st23" x1="72.7" y1="89.7" x2="79" y2="89.7"/>
			<line class="st23" x1="98.5" y1="89.7" x2="92.6" y2="89.7"/>
			<line class="st23" x1="58.8" y1="89.7" x2="66.1" y2="89.7"/>
			<line class="st23" x1="86" y1="89.7" x2="92.6" y2="89.7"/>
			<line class="st23" x1="66.1" y1="89.7" x2="72.7" y2="89.7"/>
			<line class="st23" x1="79" y1="89.7" x2="86" y2="89.7"/>
			<line class="st23" x1="64.2" y1="80.7" x2="66.1" y2="89.7"/>
			<line class="st23" x1="67.9" y1="98.8" x2="66.1" y2="89.7"/>
			<line class="st23" x1="62.4" y1="71.6" x2="64.2" y2="80.7"/>
			<line class="st23" x1="71.6" y1="71.6" x2="72.2" y2="80.7"/>
			<line class="st23" x1="73.2" y1="98.8" x2="72.7" y2="89.7"/>
			<line class="st23" x1="72.2" y1="80.7" x2="72.7" y2="89.7"/>
			<line class="st23" x1="92.6" y1="89.7" x2="94.5" y2="80.7"/>
			<line class="st23" x1="96.3" y1="71.6" x2="94.5" y2="80.7"/>
			<line class="st23" x1="90.8" y1="98.8" x2="92.6" y2="89.7"/>
			<line class="st23" x1="87.1" y1="71.6" x2="86.5" y2="80.7"/>
			<line class="st23" x1="86.5" y1="80.7" x2="86" y2="89.7"/>
			<line class="st23" x1="85.5" y1="98.8" x2="86" y2="89.7"/>
			<line class="st23" x1="79" y1="98.8" x2="79" y2="89.7"/>
			<line class="st23" x1="79" y1="71.6" x2="79" y2="80.7"/>
			<line class="st23" x1="79" y1="80.7" x2="79" y2="89.7"/>
		</g>
		<polyline class="st17" points="31.6,59.2 49.9,59.2 61.5,98.8 96.8,98.8 		"/>
		<polyline class="st17" points="61.5,98.8 53.4,113.2 90.5,113.2 		"/>
		<circle class="st18" cx="53.4" cy="113.2" r="5.3"/>
		<circle class="st18" cx="90.5" cy="113.2" r="5.3"/>
	</g>
	<circle class="st19" cx="101.9" cy="63.1" r="17.7"/>
	<circle class="st4" cx="101" cy="64" r="17.7"/>
	<path class="st10" d="M109,61.3h-5.2V56c0-1.5-1.2-2.7-2.7-2.7c-1.5,0-2.7,1.2-2.7,2.7v5.2h-5.2c-1.5,0-2.7,1.2-2.7,2.7
		c0,1.5,1.2,2.7,2.7,2.7h5.2V72c0,1.5,1.2,2.7,2.7,2.7c1.5,0,2.7-1.2,2.7-2.7v-5.2h5.2c1.5,0,2.7-1.2,2.7-2.7
		C111.7,62.5,110.5,61.3,109,61.3z"/>
	<circle class="st19" cx="82.5" cy="38" r="10.7"/>
	<circle class="st4" cx="82" cy="38.6" r="10.7"/>
	<path class="st9" d="M86.8,36.9h-3.2v-3.2c0-0.9-0.7-1.6-1.6-1.6s-1.6,0.7-1.6,1.6v3.2h-3.2c-0.9,0-1.6,0.7-1.6,1.6
		s0.7,1.6,1.6,1.6h3.2v3.2c0,0.9,0.7,1.6,1.6,1.6s1.6-0.7,1.6-1.6v-3.2h3.2c0.9,0,1.6-0.7,1.6-1.6S87.7,36.9,86.8,36.9z"/>
	<circle class="st19" cx="74.3" cy="59" r="6.9"/>
	<circle class="st4" cx="73.9" cy="59.4" r="6.9"/>
	<path class="st6" d="M77,58.3H75v-2.1c0-0.6-0.5-1.1-1.1-1.1c-0.6,0-1.1,0.5-1.1,1.1v2.1h-2.1c-0.6,0-1.1,0.5-1.1,1.1
		s0.5,1.1,1.1,1.1h2.1v2.1c0,0.6,0.5,1.1,1.1,1.1c0.6,0,1.1-0.5,1.1-1.1v-2.1H77c0.6,0,1.1-0.5,1.1-1.1S77.6,58.3,77,58.3z"/>
</g>
</svg>
